<?xml version="1.0" encoding="UTF-8"?>
<svg version="1.1" xmlns="http://www.w3.org/2000/svg" width="800" height="800">
<path d="M0 0 C1.13719482 0.00182281 2.27438965 0.00364563 3.44604492 0.00552368 C21.30783579 0.05358807 38.81135502 0.6468721 56.5 3.3125 C57.63018555 3.47878906 58.76037109 3.64507812 59.92480469 3.81640625 C88.12526138 8.09761137 115.85249457 15.12928502 142.5 25.3125 C143.96663086 25.87227539 143.96663086 25.87227539 145.46289062 26.44335938 C190.5984284 43.93752045 231.12188203 69.51312564 267.5 101.3125 C268.33789062 102.03695312 269.17578125 102.76140625 270.0390625 103.5078125 C275.45001906 108.26728265 280.58134579 113.29337776 285.6875 118.375 C286.68595947 119.3664502 286.68595947 119.3664502 287.70458984 120.37792969 C291.61210569 124.29807864 295.33227038 128.32924759 298.94799805 132.51977539 C300.85612588 134.72386265 302.83346835 136.85957159 304.8125 139 C310.06550967 144.83766167 314.82114321 151.01416451 319.5 157.3125 C320.00047852 157.98313477 320.50095703 158.65376953 321.01660156 159.34472656 C372.86957843 229.08905713 400.70652646 312.44942543 400.75 399.3125 C400.75101212 401.12545563 400.75101212 401.12545563 400.75204468 402.97503662 C400.73609657 420.9516794 400.32176329 438.52700446 397.5 456.3125 C397.22663818 458.06771973 397.22663818 458.06771973 396.94775391 459.85839844 C389.84189632 504.416934 375.93754059 546.13150196 355.5 586.3125 C354.99210938 587.31297363 354.48421875 588.31344727 353.9609375 589.34423828 C343.99387251 608.76868881 331.98358333 627.14257921 318.5 644.3125 C317.63323634 645.44464066 316.76740522 646.57749568 315.90234375 647.7109375 C310.55926065 654.66575749 304.96553931 661.26165276 298.96875 667.66015625 C297.00005394 669.7752585 295.11133948 671.91703352 293.25 674.125 C285.65530867 682.87820356 277.21338926 691.26781458 268.3515625 698.734375 C266.19414048 700.57319039 264.13851859 702.50728873 262.0625 704.4375 C229.09886502 734.12493273 188.68866559 757.2791144 147.5 773.3125 C146.47874023 773.71162598 145.45748047 774.11075195 144.40527344 774.52197266 C55.88422523 808.69960295 -44.77641107 810.00705667 -168.04296875 764.19580078 C-196.52625182 751.50494158 -223.00532223 734.54379858 -247.5 715.3125 C-248.96566406 714.16587891 -248.96566406 714.16587891 -250.4609375 712.99609375 C-256.74372885 707.96445999 -262.64332411 702.56713792 -268.51953125 697.07421875 C-270.75653579 694.98760107 -273.03663925 692.9731504 -275.375 691 C-284.73936411 682.89353555 -293.56721663 673.81738395 -301.5 664.3125 C-302.70462891 662.92417969 -302.70462891 662.92417969 -303.93359375 661.5078125 C-320.51208485 642.34764644 -334.95160016 621.31267 -347.5 599.3125 C-347.94520996 598.5395459 -348.39041992 597.7665918 -348.84912109 596.97021484 C-376.48018149 548.72565454 -392.34649761 495.41849155 -398.5 440.3125 C-398.6045752 439.38308594 -398.70915039 438.45367187 -398.81689453 437.49609375 C-399.94690064 425.48042955 -399.74396596 413.36891547 -399.75 401.3125 C-399.75067474 400.10386292 -399.75134949 398.89522583 -399.75204468 397.64996338 C-399.73609657 379.6733206 -399.32176329 362.09799554 -396.5 344.3125 C-396.31775879 343.14235352 -396.13551758 341.97220703 -395.94775391 340.76660156 C-388.83005758 296.13382913 -374.77680553 254.61508282 -354.5 214.3125 C-354.0786377 213.46333008 -353.65727539 212.61416016 -353.22314453 211.73925781 C-338.64794404 182.4370977 -318.8104945 155.1317194 -296.3515625 131.375 C-294.22657104 129.12204645 -292.1872253 126.80958597 -290.1640625 124.46484375 C-286.36048805 120.09670054 -282.34699163 115.96733754 -278.25 111.875 C-277.50274658 111.12855225 -276.75549316 110.38210449 -275.9855957 109.61303711 C-270.41756931 104.10628363 -264.66687545 99.13996359 -258.5 94.3125 C-256.57992989 92.69152287 -254.66342032 91.06632128 -252.75 89.4375 C-229.14484232 69.77664888 -202.82864319 54.15530383 -175.5 40.3125 C-174.64164551 39.87260742 -173.78329102 39.43271484 -172.89892578 38.97949219 C-137.7982118 21.08825128 -98.98962403 10.17300168 -60.1875 4.0625 C-59.23633301 3.91143799 -58.28516602 3.76037598 -57.30517578 3.60473633 C-38.24264063 0.77740867 -19.24994611 -0.06437578 0 0 Z " fill="#FEFEFE" transform="translate(399.5,-0.3125)"/>
<path d="M0 0 C57.42 0 114.84 0 174 0 C174 28.71 174 57.42 174 87 C170.04 84.69 166.08 82.38 162 80 C155.85251474 77.52766503 149.7039631 77.65571303 143.16015625 77.5859375 C142.16463745 77.56829346 141.16911865 77.55064941 140.14343262 77.5324707 C136.44994809 77.46974293 132.75620108 77.42332259 129.0625 77.375 C120.791875 77.25125 112.52125 77.1275 104 77 C104 99.11 104 121.22 104 144 C112.353125 143.9175 120.70625 143.835 129.3125 143.75 C131.92712158 143.73420898 134.54174316 143.71841797 137.2355957 143.70214844 C139.34067935 143.6727454 141.44574373 143.64191373 143.55078125 143.609375 C144.61727905 143.60824707 145.68377686 143.60711914 146.78259277 143.60595703 C155.18084782 143.44809871 163.46203896 141.91176483 170.375 136.8125 C175.68374043 131.12456383 177.86401215 125.47595747 180 118 C213 118 246 118 280 118 C280 157.23475046 280 157.23475046 273 168 C272.30090741 169.20540012 271.60699106 170.41381539 270.91796875 171.625 C259.27003954 191.48467945 241.15294811 206.52996966 219.5 214.3125 C218.5416626 214.65800903 218.5416626 214.65800903 217.56396484 215.01049805 C203.3781253 219.80063593 190.10629998 220.41351529 175.2890625 220.29296875 C173.45662714 220.28854651 171.62418797 220.28549301 169.79174805 220.28381348 C163.06944013 220.2682168 156.34721384 220.22633355 149.625 220.1875 C134.56875 220.125625 119.5125 220.06375 104 220 C104 254.65 104 289.3 104 325 C69.68 325 35.36 325 0 325 C0 217.75 0 110.5 0 0 Z " fill="#272727" transform="translate(169,241)"/>
<path d="M0 0 C104.61 0 209.22 0 317 0 C317 27.06 317 54.12 317 82 C282.02 82 247.04 82 211 82 C211 161.86 211 241.72 211 324 C176.68 324 142.36 324 107 324 C107 244.47 107 164.94 107 83 C71.69 83 36.38 83 0 83 C0 55.61 0 28.22 0 0 Z " fill="#272727" transform="translate(376,242)"/>
</svg>
