<svg xmlns="http://www.w3.org/2000/svg" xmlns:xlink="http://www.w3.org/1999/xlink" width="1080" zoomAndPan="magnify" viewBox="0 0 810 299.999988" height="400" preserveAspectRatio="xMidYMid meet" version="1.0"><path fill="#fff" d="M 72.550781 38.808594 C 101.613281 38.808594 130.675781 38.808594 160.621094 38.808594 C 172.363281 68.164062 184.105469 97.519531 195.847656 126.875 C 201.734375 120.46875 207.601562 114.042969 213.460938 107.609375 C 217.136719 103.636719 220.816406 99.664062 224.605469 95.570312 C 235.632812 83.320312 235.632812 83.320312 243.320312 70.113281 C 251.667969 56.832031 257.933594 48.039062 270.703125 38.808594 C 295.335938 33.535156 320.726562 36.265625 345.5625 38.808594 C 340.054688 68.09375 333.40625 96.800781 325.453125 125.515625 C 324.402344 129.351562 323.347656 133.1875 322.265625 137.140625 C 320.0625 145.15625 317.855469 153.164062 315.636719 161.171875 C 312.234375 173.484375 308.863281 185.804688 305.492188 198.128906 C 303.339844 205.941406 301.1875 213.753906 299.035156 221.5625 C 297.519531 227.101562 297.519531 227.101562 295.976562 232.753906 C 288.824219 258.46875 288.824219 258.46875 283.914062 263.378906 C 272.03125 263.703125 260.289062 263.785156 248.410156 263.65625 C 236.878906 263.5625 225.34375 263.472656 213.460938 263.378906 C 219.273438 235.769531 225.085938 208.160156 231.074219 179.714844 C 226.351562 185.527344 221.628906 191.339844 216.761719 197.328125 C 204.875 209.472656 198.675781 214.472656 181.742188 217.28125 C 168.667969 217.15625 155.980469 216.5 143.007812 214.941406 C 137.195312 201.863281 131.382812 188.785156 125.390625 175.3125 C 123.855469 181.300781 122.316406 187.289062 120.730469 193.457031 C 118.707031 201.261719 116.683594 209.066406 114.660156 216.867188 C 113.644531 220.820312 112.632812 224.777344 111.589844 228.847656 C 110.121094 234.488281 110.121094 234.488281 108.621094 240.246094 C 107.722656 243.726562 106.824219 247.207031 105.894531 250.796875 C 103.375 258.976562 103.375 258.976562 98.972656 263.378906 C 87.097656 263.703125 75.339844 263.785156 63.46875 263.65625 C 58.460938 263.625 58.460938 263.625 53.347656 263.59375 C 45.070312 263.542969 36.792969 263.464844 28.519531 263.378906 C 32.703125 235.195312 38.941406 207.945312 47.007812 180.625 C 47.890625 177.625 48.773438 174.625 49.679688 171.53125 C 53.355469 159.085938 57.054688 146.648438 60.839844 134.234375 C 63.628906 125.039062 66.332031 115.820312 69.027344 106.59375 C 70.652344 101.183594 72.28125 95.773438 73.957031 90.199219 C 78.375 70.933594 78.375 70.933594 72.550781 38.808594 Z M 235.476562 166.503906 C 239.878906 175.3125 239.878906 175.3125 239.878906 175.3125 Z M 235.476562 166.503906 " fill-opacity="1" fill-rule="nonzero"/><path fill="#fff" d="M 587.746094 38.808594 C 611.175781 38.371094 634.597656 38.050781 658.027344 37.839844 C 665.996094 37.75 673.960938 37.628906 681.925781 37.476562 C 693.390625 37.265625 704.855469 37.164062 716.324219 37.085938 C 721.644531 36.949219 721.644531 36.949219 727.070312 36.8125 C 744.640625 36.804688 753.023438 37.5 768.230469 47.171875 C 785.785156 65.492188 782.910156 83.910156 782.804688 108.316406 C 781.058594 127.230469 776.332031 134.933594 763.882812 148.890625 C 762.429688 151.796875 760.976562 154.703125 759.480469 157.699219 C 762.378906 163.585938 765.320312 169.457031 768.285156 175.3125 C 771.949219 198.351562 770.078125 219.203125 756.617188 238.648438 C 744.148438 253.578125 728.621094 262.078125 709.613281 264.898438 C 697.855469 265.410156 686.226562 265.363281 674.457031 265.097656 C 670.199219 265.074219 665.941406 265.050781 661.558594 265.023438 C 648.050781 264.925781 634.550781 264.703125 621.046875 264.480469 C 611.855469 264.390625 602.660156 264.3125 593.46875 264.238281 C 571.007812 264.046875 548.554688 263.742188 526.101562 263.378906 C 528.773438 259.066406 531.445312 254.757812 534.199219 250.316406 C 544.335938 232.527344 549.867188 214.703125 555.066406 194.988281 C 556.019531 191.488281 556.972656 187.988281 557.953125 184.382812 C 559.941406 177.035156 561.910156 169.675781 563.855469 162.3125 C 566.828125 151.109375 569.886719 139.929688 572.957031 128.75 C 574.886719 121.566406 576.8125 114.382812 578.734375 107.195312 C 579.644531 103.890625 580.550781 100.582031 581.484375 97.171875 C 586.722656 77.101562 588.640625 59.550781 587.746094 38.808594 Z M 653.796875 91.648438 C 650.890625 103.273438 647.984375 114.898438 644.992188 126.875 C 654.253906 127.230469 663.519531 127.488281 672.789062 127.699219 C 677.949219 127.851562 683.109375 128.007812 688.421875 128.164062 C 701.949219 127.914062 701.949219 127.914062 710.957031 121.59375 C 717.585938 111.898438 717.585938 111.898438 711.042969 91.648438 C 692.152344 91.648438 673.261719 91.648438 653.796875 91.648438 Z M 631.78125 179.714844 C 625.242188 197.152344 625.242188 197.152344 618.570312 214.941406 C 628.566406 215.296875 638.570312 215.554688 648.570312 215.769531 C 656.921875 215.996094 656.921875 215.996094 665.445312 216.230469 C 679.808594 216.058594 679.808594 216.058594 689.078125 209.660156 C 695.523438 199.929688 695.523438 199.929688 689.027344 179.714844 C 670.136719 179.714844 651.246094 179.714844 631.78125 179.714844 Z M 631.78125 179.714844 " fill-opacity="1" fill-rule="nonzero"/><path fill="#fff" d="M 367.578125 38.808594 C 396.640625 38.808594 425.703125 38.808594 455.644531 38.808594 C 441.390625 98.101562 424.574219 156.488281 407.207031 214.941406 C 421.339844 214.582031 435.464844 214.085938 449.589844 213.566406 C 453.570312 213.464844 457.550781 213.367188 461.648438 213.265625 C 484.847656 212.332031 501.445312 209.878906 521.695312 197.328125 C 520.328125 205.035156 518.949219 212.742188 517.570312 220.445312 C 516.800781 224.738281 516.035156 229.027344 515.246094 233.449219 C 513.324219 243.496094 510.96875 253.457031 508.488281 263.378906 C 441.644531 263.378906 374.800781 263.378906 305.929688 263.378906 C 314.648438 252.480469 314.648438 252.480469 323.542969 241.363281 C 327.703125 232.578125 327.703125 232.578125 330.058594 223.585938 C 331.042969 220.25 332.027344 216.914062 333.039062 213.476562 C 334.019531 209.929688 335.003906 206.382812 336.015625 202.730469 C 337.074219 199.023438 338.136719 195.316406 339.230469 191.496094 C 341.449219 183.679688 343.640625 175.855469 345.808594 168.023438 C 349.125 156.09375 352.5625 144.203125 356.011719 132.308594 C 358.160156 124.6875 360.300781 117.0625 362.433594 109.433594 C 363.460938 105.90625 364.488281 102.375 365.546875 98.742188 C 366.460938 95.375 367.375 92.011719 368.316406 88.542969 C 369.132812 85.628906 369.949219 82.714844 370.792969 79.707031 C 372.828125 66.152344 372.828125 66.152344 367.578125 38.808594 Z M 367.578125 38.808594 " fill-opacity="1" fill-rule="nonzero"/></svg>